HIERARCHY
ROOT Hips
{
	OFFSET 0.00000 0.00000 0.00000
	CHANNELS 6 Xposition Yposition Zposition Zrotation Yrotation Xrotation 
	JOINT LHipJoint
	{
		OFFSET 0 0 0
		CHANNELS 3 Zrotation Yrotation Xrotation
		JOINT LeftHip
		{
			OFFSET 1.62067 -1.77917 0.70989
			CHANNELS 3 Zrotation Yrotation Xrotation
			JOINT LeftKnee
			{
				OFFSET 2.34532 -6.44371 0.00000
				CHANNELS 3 Zrotation Yrotation Xrotation
				JOINT LeftAnkle
				{
					OFFSET 2.74224 -7.53425 0.00000
					CHANNELS 3 Zrotation Yrotation Xrotation
					JOINT LeftToe
					{
						OFFSET 0.17032 -0.46794 2.08086
						CHANNELS 3 Zrotation Yrotation Xrotation
						End Site
						{
							OFFSET 0.00000 -0.00000 1.07476
						}
					}
				}
			}
		}
	}
	JOINT RHipJoint
	{
		OFFSET 0 0 0
		CHANNELS 3 Zrotation Yrotation Xrotation
		JOINT RightHip
		{
			OFFSET -1.55811 -1.77917 0.70989
			CHANNELS 3 Zrotation Yrotation Xrotation
			JOINT RightKnee
			{
				OFFSET -2.33243 -6.40830 0.00000
				CHANNELS 3 Zrotation Yrotation Xrotation
				JOINT RightAnkle
				{
					OFFSET -2.78798 -7.65993 0.00000
					CHANNELS 3 Zrotation Yrotation Xrotation
					JOINT RightToe
					{
						OFFSET -0.22707 -0.62388 2.04059
						CHANNELS 3 Zrotation Yrotation Xrotation
						End Site
						{
							OFFSET -0.00000 -0.00000 1.07030
						}
					}
				}
			}
		}
	}
	JOINT lowerback
	{
		OFFSET 0 0 0
		CHANNELS 3 Zrotation Yrotation Xrotation
		JOINT Chest
		{
			OFFSET 0.02203 1.91565 0.07161
			CHANNELS 3 Zrotation Yrotation Xrotation
			JOINT Chest2
			{
				OFFSET 0.01740 1.90525 0.11636
				CHANNELS 3 Zrotation Yrotation Xrotation
				JOINT lowerneck
				{
					OFFSET 0 0 0
					CHANNELS 3 Zrotation Yrotation Xrotation
					JOINT Neck
					{
						OFFSET -0.10841 1.83566 0.05067
						CHANNELS 3 Zrotation Yrotation Xrotation
						JOINT Head
						{
							OFFSET 0.06601 1.74760 -0.50505
							CHANNELS 3 Zrotation Yrotation Xrotation
							End Site
							{
								OFFSET 0.03102 1.85215 -0.17697
							}
						}
					}
				}
				JOINT LeftCollar
				{
					OFFSET 0 0 0
					CHANNELS 3 Zrotation Yrotation Xrotation
					JOINT LeftShoulder
					{
						OFFSET 2.87059 1.35470 0.16111
CHANNELS 3 Zrotation Xrotation Yrotation
						JOINT LeftElbow
						{
OFFSET 0 -5.435920 0.000000
CHANNELS 3 Zrotation Xrotation Yrotation
							JOINT LeftWrist
							{
OFFSET 0 -3.254600 0.000000
CHANNELS 3 Zrotation Xrotation Yrotation
								JOINT lhand
								{
									OFFSET 0 0 0
CHANNELS 3 Zrotation Xrotation Yrotation
									JOINT LFingers
									{
OFFSET 0 -0.498240 0.000000
CHANNELS 3 Zrotation Xrotation Yrotation
										End Site
										{
OFFSET 0 -0.401700 0.000000
										}
									}
								}
								JOINT LThumb
								{
OFFSET 0 0.000000 0.000000
CHANNELS 3 Zrotation Xrotation Yrotation
									End Site
									{
OFFSET 0 -0.407830 0.407830
									}
								}
							}
						}
					}
				}
				JOINT RightCollar
				{
					OFFSET 0 0 0
					CHANNELS 3 Zrotation Yrotation Xrotation
					JOINT RightShoulder
					{
						OFFSET -2.86643 1.23488 0.45957
CHANNELS 3 Zrotation Xrotation Yrotation
						JOINT RightElbow
						{
OFFSET 0 -5.338300 0.000000
CHANNELS 3 Zrotation Xrotation Yrotation
							JOINT RightWrist
							{
OFFSET 0 -3.231480 0.000000
CHANNELS 3 Zrotation Xrotation Yrotation
								JOINT rhand
								{
									OFFSET 0 0 0
CHANNELS 3 Zrotation Xrotation Yrotation
									JOINT RFingers
									{
OFFSET 0 -0.463640 0.000000
CHANNELS 3 Zrotation Xrotation Yrotation
										End Site
										{
OFFSET 0 -0.373800 0.000000
										}
									}
								}
								JOINT RThumb
								{
OFFSET 0 0.000000 0.000000
CHANNELS 3 Zrotation Xrotation Yrotation
									End Site
									{
OFFSET 0 -0.379510 0.379510
									}
								}
							}
						}
					}
				}
			}
		}
	}
}
MOTION
Frames: 11
Frame Time: 0.008333333333333333
3.920340 16.555929 0.350924 3.707490 1.469439 8.999913 0.000000 0.000000 0.000000 -30.833758 -12.991372 -25.323916 5.502798 13.928587 42.952104 1.531768 5.018300 -25.652449 0.173563 2.683165 7.397942 0.000000 0.000000 0.000000 2.615728 24.540876 -47.417788 -15.182290 -19.434150 75.785180 -0.263561 1.801382 10.529157 -3.785317 11.868372 -35.268756 -0.019422 3.279905 -5.417172 -3.778897 4.524215 0.560074 -3.498750 2.295606 3.922267 5.178857 7.823301 0.899008 7.936214 9.753982 57.875894 5.828287 5.577729 26.532436 0.000000 0.000000 0.000000 6.555307 -9.227914 -38.572138 31.771755 -42.364427 12.586731 37.814003 -87.119128 13.270787 0.000000 0.000000 0.000000 -7.125000 0.000000 0.000000 7.052512 13.446833 5.261815 0.000000 0.000000 0.000000 0.343603 5.717501 29.968643 -48.071734 -52.187562 -24.642355 -5.467472 -43.904030 49.618680 0.000000 0.000000 0.000000 7.125000 0.000000 0.000000 59.768430 71.982175 -42.405695
3.924366 16.548243 0.348371 3.885193 1.538524 9.131167 0.000000 0.000000 0.000000 -31.000090 -13.018751 -25.550076 5.529166 13.956005 43.061455 1.537835 4.871218 -25.616866 0.182242 2.748789 7.580199 0.000000 0.000000 0.000000 2.259134 24.453179 -47.667758 -15.212322 -19.441319 75.875431 -0.262732 1.848093 10.540513 -3.745896 11.814366 -35.078316 -0.431426 3.205696 -5.527245 -3.659362 4.451486 0.614626 -3.143289 2.248574 3.994252 4.921885 7.847725 0.841619 7.901040 9.850906 57.835923 5.857436 5.562105 26.444968 0.000000 0.000000 0.000000 6.293331 -9.200518 -38.021016 31.473955 -42.123624 12.386641 38.936784 -87.578159 13.402460 0.000000 0.000000 0.000000 -7.125000 0.000000 0.000000 7.772399 13.062844 5.870125 0.000000 0.000000 0.000000 0.150651 5.786685 29.782059 -47.677921 -52.014504 -24.331729 -6.987517 -42.755649 47.743808 0.000000 0.000000 0.000000 7.125000 0.000000 0.000000 55.423125 71.263928 -38.584153
3.923853 16.533356 0.347583 3.964561 1.455837 9.203469 0.000000 0.000000 0.000000 -31.056089 -12.816200 -25.830840 5.555942 13.983742 43.172393 1.541185 4.733499 -25.566958 0.186432 2.780922 7.669484 0.000000 0.000000 0.000000 2.062151 24.561888 -47.855939 -15.253528 -19.451032 75.999159 -0.255664 1.935678 10.462886 -3.758323 11.831611 -35.138811 -0.301663 3.318243 -5.025995 -3.882322 4.577843 0.290942 -3.474096 2.313962 3.412969 4.986579 7.840892 0.872341 8.304701 9.696910 58.082100 6.139463 5.527819 26.752553 0.000000 0.000000 0.000000 6.571891 -8.838449 -37.847048 31.063008 -41.787264 12.111845 37.775229 -87.105647 13.267438 0.000000 0.000000 0.000000 -7.125000 0.000000 0.000000 7.028102 13.460184 5.239525 0.000000 0.000000 0.000000 0.510625 6.215587 29.304062 -46.971597 -51.698458 -23.776210 -9.718187 -39.848899 55.872476 0.000000 0.000000 0.000000 7.125000 0.000000 0.000000 80.496625 74.793138 -65.279527
3.930896 16.536466 0.359554 4.013932 1.588133 9.210676 0.000000 0.000000 0.000000 -31.173197 -12.758797 -25.630987 5.535609 13.962664 43.088183 1.550926 4.567213 -25.549961 0.173442 2.682660 7.396558 0.000000 0.000000 0.000000 2.020427 24.358844 -47.749916 -15.252880 -19.450955 75.997340 -0.247003 2.070884 10.382620 -3.736592 11.801406 -35.033046 0.168280 3.469378 -4.386112 -4.277771 4.736434 -0.148218 -4.186903 2.399516 2.682014 5.175902 7.765586 0.994963 9.004266 9.300224 58.444941 6.580450 5.441671 27.211017 0.000000 0.000000 0.000000 7.153272 -8.061152 -38.016331 30.780263 -41.552790 11.923894 38.951402 -87.375386 13.259306 0.000000 0.000000 0.000000 -7.125000 0.000000 0.000000 7.805646 13.236502 5.867219 0.000000 0.000000 0.000000 1.270668 7.005628 28.479746 -46.484150 -51.475157 -23.394181 -2.933295 -46.095368 35.941867 0.000000 0.000000 0.000000 7.125000 0.000000 0.000000 36.751183 62.113142 -16.479076
3.940468 16.543028 0.373068 4.207724 1.643263 9.257730 0.000000 0.000000 0.000000 -31.448358 -12.806329 -25.467296 5.479634 13.904404 42.855936 1.531177 4.672708 -25.459870 0.163072 2.602069 7.172837 0.000000 0.000000 0.000000 1.781539 24.133563 -47.679427 -15.233043 -19.446193 75.937624 -0.249980 2.170672 10.498855 -3.645331 11.672887 -34.584349 0.114625 3.539321 -4.644537 -4.419261 4.844916 -0.112643 -4.278525 2.456172 2.880303 5.427729 7.677139 1.129662 8.836469 9.190503 58.362844 6.376828 5.459952 27.107502 0.000000 0.000000 0.000000 7.220316 -7.975237 -37.730833 30.261040 -41.116036 11.580947 38.068622 -87.502542 14.377178 0.000000 0.000000 0.000000 -7.125000 0.000000 0.000000 7.042139 12.047712 5.459540 0.000000 0.000000 0.000000 1.515386 7.356918 27.916467 -46.161790 -51.325115 -23.142265 -3.646722 -45.796628 35.994315 0.000000 0.000000 0.000000 7.125000 0.000000 0.000000 36.108124 62.336921 -16.338827
3.946876 16.547239 0.375330 4.153979 1.756322 9.241522 0.000000 0.000000 0.000000 -31.431193 -12.812172 -25.335401 5.446744 13.869891 42.718563 1.536857 4.640075 -25.484787 0.158031 2.561735 7.060759 0.000000 0.000000 0.000000 1.857848 23.993687 -47.621712 -15.210871 -19.441010 75.871005 -0.249286 2.120305 10.454566 -3.632959 11.655279 -34.523127 0.206482 3.548394 -4.590456 -4.419380 4.849739 -0.146711 -4.334245 2.459353 2.822876 5.513403 7.647254 1.261942 8.824598 9.130693 58.309056 6.309732 5.471003 26.978545 0.000000 0.000000 0.000000 7.200633 -7.885131 -37.326427 29.788240 -40.711168 11.271261 38.560311 -86.864543 13.725507 0.000000 0.000000 0.000000 -7.125000 0.000000 0.000000 7.471555 12.742858 5.688791 0.000000 0.000000 0.000000 1.630480 7.532968 27.566348 -45.538279 -51.029361 -22.656451 -12.024092 -38.354951 51.421547 0.000000 0.000000 0.000000 7.125000 0.000000 0.000000 62.816040 74.912221 -48.606205
3.950010 16.551800 0.376417 4.064311 1.789268 9.167934 0.000000 0.000000 0.000000 -31.332006 -12.858076 -25.251139 5.431467 13.853822 42.654970 1.530327 4.637691 -25.434743 0.176925 2.709198 7.470236 0.000000 0.000000 0.000000 2.013048 23.971258 -47.509333 -15.189048 -19.435816 75.805400 -0.252184 1.960630 10.413266 -3.635694 11.659180 -34.536801 0.300643 3.591891 -4.460450 -4.396340 4.901050 -0.109863 -4.365778 2.486533 2.797999 5.790597 7.599368 1.306280 8.386017 9.205986 58.169842 5.964124 5.541602 26.869016 0.000000 0.000000 0.000000 7.184436 -7.939015 -36.818590 29.357401 -40.336071 10.991312 37.626773 -86.011876 13.282587 0.000000 0.000000 0.000000 -7.125000 0.000000 0.000000 6.926874 13.469495 5.162375 0.000000 0.000000 0.000000 1.699127 7.451765 27.168326 -44.784090 -50.662113 -22.071701 -8.554471 -41.711942 46.162899 0.000000 0.000000 0.000000 7.125000 0.000000 0.000000 48.458695 71.179911 -32.515780
3.958605 16.554838 0.379635 3.937976 2.051087 9.126723 0.000000 0.000000 0.000000 -31.236368 -13.029268 -25.026106 5.412633 13.833935 42.576337 1.519708 4.704656 -25.392216 0.179844 2.731306 7.531483 0.000000 0.000000 0.000000 2.235363 23.687772 -47.357259 -15.180894 -19.433849 75.780940 -0.250135 2.017449 10.409007 -3.680663 11.722728 -34.758131 0.499388 3.563888 -4.484524 -4.358665 4.853584 -0.098975 -4.439890 2.465747 2.832136 5.937181 7.543764 1.450490 8.289258 9.135632 58.121526 5.837801 5.553226 26.774657 0.000000 0.000000 0.000000 7.113094 -7.820253 -36.274276 29.090074 -40.100511 10.818723 37.852942 -85.389825 12.254823 0.000000 0.000000 0.000000 -7.125000 0.000000 0.000000 7.238111 14.683908 5.209603 0.000000 0.000000 0.000000 1.753046 7.740845 26.868805 -44.536528 -50.539392 -21.880367 -7.425433 -42.549501 44.659143 0.000000 0.000000 0.000000 7.125000 0.000000 0.000000 46.048435 69.851681 -29.408659
3.965882 16.553518 0.383567 4.131210 2.160400 9.201648 0.000000 0.000000 0.000000 -31.478367 -13.262665 -24.946879 5.393013 13.813149 42.494099 1.495607 4.889908 -25.313519 0.158564 2.565613 7.071598 0.000000 0.000000 0.000000 2.006837 23.443517 -47.435227 -15.206797 -19.440009 75.858911 -0.231915 2.265313 10.221348 -3.840586 11.945124 -35.538286 0.433103 3.608255 -4.587917 -4.473930 4.923841 -0.061466 -4.509443 2.502651 2.939949 5.878733 7.473563 1.335854 8.456610 8.942279 58.069798 5.919473 5.485590 26.736605 0.000000 0.000000 0.000000 7.243822 -7.755307 -36.239804 28.803421 -39.845357 10.634519 39.328030 -85.718467 12.279787 0.000000 0.000000 0.000000 -7.125000 0.000000 0.000000 8.217810 14.377191 5.982487 0.000000 0.000000 0.000000 1.918858 7.794415 26.332345 -44.055818 -50.297256 -21.509909 -6.858224 -42.894283 44.833653 0.000000 0.000000 0.000000 7.125000 0.000000 0.000000 46.954004 69.776565 -29.998937
3.968702 16.557451 0.377400 4.116152 2.230501 9.227871 0.000000 0.000000 0.000000 -31.469320 -13.535567 -24.857058 5.377397 13.796597 42.428587 1.483809 5.084195 -25.332811 0.167665 2.636668 7.268828 0.000000 0.000000 0.000000 2.012167 23.397635 -47.478758 -15.210203 -19.440851 75.869009 -0.232900 2.187266 10.190479 -3.825551 11.924432 -35.465312 0.874280 3.735514 -4.717639 -4.775809 5.087967 0.023879 -5.048490 2.600172 3.182963 6.182070 7.414789 1.264301 8.635983 8.686823 57.952984 5.914960 5.474578 26.658577 0.000000 0.000000 0.000000 7.693913 -8.083506 -36.087621 28.250079 -39.344662 10.282165 38.814684 -85.702809 12.523582 0.000000 0.000000 0.000000 -7.125000 0.000000 0.000000 7.836777 14.173703 5.733734 0.000000 0.000000 0.000000 2.518314 7.671104 25.574462 -43.801456 -50.167653 -21.314355 -6.885877 -42.872586 44.614806 0.000000 0.000000 0.000000 7.125000 0.000000 0.000000 46.481322 69.641836 -29.527264
3.974012 16.552884 0.377026 4.290631 2.323376 9.269145 0.000000 0.000000 0.000000 -31.675236 -13.584901 -24.875111 5.383240 13.802838 42.453254 1.506534 4.935705 -25.419819 0.171697 2.669249 7.359143 0.000000 0.000000 0.000000 1.762710 23.253643 -47.586106 -15.242352 -19.448434 75.965595 -0.234408 2.144710 10.193261 -3.709856 11.763959 -34.902178 0.671974 3.784643 -4.495269 -4.773353 5.154037 -0.132119 -4.946036 2.624526 2.884431 6.168135 7.320817 1.427072 8.696099 8.527413 57.932982 5.903716 5.436421 26.549116 0.000000 0.000000 0.000000 7.526454 -8.108515 -35.914720 27.639442 -38.782099 9.897062 39.343264 -86.129774 12.663261 0.000000 0.000000 0.000000 -7.125000 0.000000 0.000000 8.163789 13.896454 6.027194 0.000000 0.000000 0.000000 2.513194 8.137634 25.018660 -43.574415 -50.050316 -21.140167 -7.032701 -42.647555 45.577369 0.000000 0.000000 0.000000 7.125000 0.000000 0.000000 48.484401 70.295278 -31.669587
